<mxfile host="Electron" modified="2023-11-20T05:52:46.763Z" agent="Mozilla/5.0 (Windows NT 10.0; Win64; x64) AppleWebKit/537.36 (KHTML, like Gecko) draw.io/22.0.2 Chrome/114.0.5735.289 Electron/25.8.4 Safari/537.36" etag="FeMyzU-sbhYjlDX0AEeb" version="22.0.2" type="device">
  <diagram name="Page-1" id="a3B4zav-jRU-uLR0BQOt">
    <mxGraphModel dx="965" dy="552" grid="1" gridSize="10" guides="1" tooltips="1" connect="1" arrows="1" fold="1" page="1" pageScale="1" pageWidth="1800" pageHeight="1200" math="0" shadow="0">
      <root>
        <mxCell id="0" />
        <mxCell id="1" parent="0" />
        <mxCell id="1EU5kQVTGvADvqnlREZu-4" value="" style="rounded=0;whiteSpace=wrap;html=1;fillStyle=dots;fillColor=none;dashed=1;strokeColor=#6c8ebf;" vertex="1" parent="1">
          <mxGeometry x="360" y="300" width="420" height="160" as="geometry" />
        </mxCell>
        <mxCell id="1EU5kQVTGvADvqnlREZu-6" value="" style="rounded=0;whiteSpace=wrap;html=1;fillStyle=dots;fillColor=none;dashed=1;strokeColor=#6c8ebf;" vertex="1" parent="1">
          <mxGeometry x="360" y="90" width="420" height="160" as="geometry" />
        </mxCell>
        <mxCell id="1EU5kQVTGvADvqnlREZu-1" value="" style="sketch=0;points=[[0,0,0],[0.25,0,0],[0.5,0,0],[0.75,0,0],[1,0,0],[0,1,0],[0.25,1,0],[0.5,1,0],[0.75,1,0],[1,1,0],[0,0.25,0],[0,0.5,0],[0,0.75,0],[1,0.25,0],[1,0.5,0],[1,0.75,0]];outlineConnect=0;fontColor=#232F3E;fillColor=#8C4FFF;strokeColor=#ffffff;dashed=0;verticalLabelPosition=bottom;verticalAlign=top;align=center;html=1;fontSize=12;fontStyle=0;aspect=fixed;shape=mxgraph.aws4.resourceIcon;resIcon=mxgraph.aws4.kinesis_data_streams;" vertex="1" parent="1">
          <mxGeometry x="270" y="200" width="40" height="40" as="geometry" />
        </mxCell>
        <mxCell id="1EU5kQVTGvADvqnlREZu-2" value="&lt;font style=&quot;font-size: 10px;&quot;&gt;Kinesis Firehose&lt;/font&gt;" style="sketch=0;points=[[0,0,0],[0.25,0,0],[0.5,0,0],[0.75,0,0],[1,0,0],[0,1,0],[0.25,1,0],[0.5,1,0],[0.75,1,0],[1,1,0],[0,0.25,0],[0,0.5,0],[0,0.75,0],[1,0.25,0],[1,0.5,0],[1,0.75,0]];outlineConnect=0;fontColor=#232F3E;fillColor=#8C4FFF;strokeColor=#ffffff;dashed=0;verticalLabelPosition=bottom;verticalAlign=top;align=center;html=1;fontSize=12;fontStyle=0;aspect=fixed;shape=mxgraph.aws4.resourceIcon;resIcon=mxgraph.aws4.kinesis_data_firehose;" vertex="1" parent="1">
          <mxGeometry x="380" y="360" width="40" height="40" as="geometry" />
        </mxCell>
        <mxCell id="1EU5kQVTGvADvqnlREZu-5" value="Streaming Layer" style="text;html=1;strokeColor=none;fillColor=none;align=center;verticalAlign=middle;whiteSpace=wrap;rounded=0;" vertex="1" parent="1">
          <mxGeometry x="510" y="90" width="100" height="30" as="geometry" />
        </mxCell>
        <mxCell id="1EU5kQVTGvADvqnlREZu-7" value="Batch Layer" style="text;html=1;strokeColor=none;fillColor=none;align=center;verticalAlign=middle;whiteSpace=wrap;rounded=0;" vertex="1" parent="1">
          <mxGeometry x="525" y="300" width="90" height="30" as="geometry" />
        </mxCell>
        <mxCell id="1EU5kQVTGvADvqnlREZu-8" value="s3" style="sketch=0;points=[[0,0,0],[0.25,0,0],[0.5,0,0],[0.75,0,0],[1,0,0],[0,1,0],[0.25,1,0],[0.5,1,0],[0.75,1,0],[1,1,0],[0,0.25,0],[0,0.5,0],[0,0.75,0],[1,0.25,0],[1,0.5,0],[1,0.75,0]];outlineConnect=0;fontColor=#232F3E;fillColor=#7AA116;strokeColor=#ffffff;dashed=0;verticalLabelPosition=bottom;verticalAlign=top;align=center;html=1;fontSize=12;fontStyle=0;aspect=fixed;shape=mxgraph.aws4.resourceIcon;resIcon=mxgraph.aws4.s3;" vertex="1" parent="1">
          <mxGeometry x="540" y="360" width="40" height="40" as="geometry" />
        </mxCell>
      </root>
    </mxGraphModel>
  </diagram>
</mxfile>
